<?xml version="1.0" encoding="utf-8"?>
<!-- Generator: Adobe Illustrator 25.0.0, SVG Export Plug-In . SVG Version: 6.00 Build 0)  -->
<svg version="1.1" id="Layer_1" xmlns="http://www.w3.org/2000/svg" xmlns:xlink="http://www.w3.org/1999/xlink" x="0px" y="0px"
	 viewBox="0 0 595.28 841.89" style="enable-background:new 0 0 595.28 841.89;" xml:space="preserve">
<style type="text/css">
	.st0{fill:#FFFFFF;stroke:#2E3192;stroke-width:3;stroke-miterlimit:10;}
	.st1{fill:#21409A;stroke:#2E3192;stroke-miterlimit:10;}
	.st2{fill:#2E3192;stroke:#2E3192;stroke-width:3;stroke-miterlimit:10;}
	.st3{fill:#FFFFFF;stroke:#2E3192;stroke-miterlimit:10;}
	.st4{fill:none;stroke:#2E3192;stroke-miterlimit:10;}
	.st5{fill:#2E3192;}
	.st6{font-family:'Sylfaen';}
	.st7{font-size:67.6668px;}
	.st8{fill:#2E3192;stroke:#FFFFFF;stroke-width:2;stroke-miterlimit:10;}
	.st9{fill:#2E3192;stroke:#FFFFFF;stroke-miterlimit:10;}
	.st10{fill:#21409A;stroke:#FFFFFF;stroke-miterlimit:10;}
</style>
<path class="st0" d="M41.72,276.64"/>
<g>
	<ellipse class="st1" cx="95.56" cy="658.38" rx="5.42" ry="7.9"/>
	<ellipse class="st1" cx="77.13" cy="650.81" rx="5.42" ry="7.9"/>
	<ellipse class="st1" cx="95.56" cy="658.38" rx="5.42" ry="7.9"/>
	<ellipse class="st1" cx="77.13" cy="650.81" rx="5.42" ry="7.9"/>
	<g>
		<path class="st0" d="M483.96,182.76c-7.68,11.15-100.42,122.25-150.62,183.37l-0.61-1.06c18.65-23.5-32.26-86.67-46.25-85.79
			c14.58-18.4,124.02-156.4,149.01-181.35C489.29,44.23,516.9,135.02,483.96,182.76z"/>
		<path class="st2" d="M331.36,368.18c-19.43,24.44-123.85,156.66-150.62,183.37c-53.81,53.73-81.42-37.06-48.46-84.82
			c7.66-11.13,141.18-173.32,150.62-183.37c0.56-0.61,1.31-0.91,2.21-0.96C299.09,281.51,350.01,344.68,331.36,368.18z"/>
		<polyline class="st3" points="476.44,83.82 493.36,63.22 491.67,26.94 		"/>
		<polyline class="st3" points="493.36,63.22 526.3,58.4 551.57,27.64 		"/>
		<polyline class="st3" points="496.77,148.56 509.66,132.86 518.08,122.61 521.15,94.66 556.24,51.95 		"/>
		<polyline class="st3" points="518.08,122.61 539.88,127.44 575.07,84.89 		"/>
		<polyline class="st3" points="118.2,519.96 91.94,551.93 73.31,535.98 41.03,575.28 		"/>
		<line class="st4" x1="91.94" y1="551.93" x2="54.05" y2="598.07"/>
		<polyline class="st3" points="104.58,536.55 103.83,572.74 65.93,618.87 		"/>
		<polyline class="st3" points="144.09,565.97 118.07,597.66 116,631.53 90.74,662.29 		"/>
		<line class="st4" x1="118.07" y1="597.66" x2="80.17" y2="643.8"/>
		<ellipse class="st1" cx="570.91" cy="89.96" rx="5.42" ry="7.9"/>
		<ellipse class="st1" cx="100.42" cy="541.62" rx="5.42" ry="7.9"/>
		<ellipse class="st1" cx="118.07" cy="597.66" rx="5.42" ry="7.9"/>
		<ellipse class="st1" cx="65.93" cy="618.87" rx="5.42" ry="7.9"/>
		<ellipse class="st1" cx="493.36" cy="63.22" rx="5.42" ry="7.9"/>
		<ellipse class="st1" cx="522.24" cy="117.55" rx="5.42" ry="7.9"/>
		<ellipse class="st1" cx="555.72" cy="22.58" rx="5.42" ry="7.9"/>
		<ellipse class="st1" cx="491.01" cy="25.79" rx="5.42" ry="7.9"/>
		<ellipse class="st1" cx="557" cy="53.27" rx="5.42" ry="7.9"/>
		<ellipse class="st1" cx="54.05" cy="598.07" rx="5.42" ry="7.9"/>
		<ellipse class="st1" cx="42.16" cy="577.26" rx="5.42" ry="7.9"/>
		<path class="st0" d="M259.55,322.9"/>
		<text transform="matrix(0.9493 -1.1558 0.4961 0.8683 357.3324 300.1471)" class="st5 st6 st7">IMC</text>
		<path class="st8" d="M264.5,331.56"/>
		<polyline class="st9" points="124.54,547.53 158.02,506.76 142.66,479.89 187.58,425.21 		"/>
		<polyline class="st9" points="145.95,527.29 156.67,546.05 201.73,491.63 		"/>
		<line class="st9" x1="152.4" y1="513.6" x2="221.61" y2="429.35"/>
		<line class="st9" x1="172.06" y1="464.69" x2="227.26" y2="397.48"/>
		<line class="st9" x1="213.04" y1="469.78" x2="268.39" y2="402.4"/>
		<polyline class="st9" points="308.37,298.73 281.54,331.4 271.43,343.7 279.85,358.44 250.65,393.98 		"/>
		<polyline class="st9" points="271.43,343.7 259.55,322.9 230.35,358.45 		"/>
		<polyline class="st9" points="316.18,332.05 327.93,352.61 311.37,372.51 		"/>
		<line class="st9" x1="320.98" y1="320.81" x2="297.89" y2="348.93"/>
		<ellipse class="st10" cx="300.17" cy="352.92" rx="5.67" ry="8.27"/>
		<ellipse class="st10" cx="268.39" cy="402.4" rx="5.67" ry="8.27"/>
		<ellipse class="st10" cx="307.61" cy="378.85" rx="5.67" ry="8.27"/>
		<ellipse class="st10" cx="156.67" cy="546.05" rx="5.67" ry="8.27"/>
		<ellipse class="st10" cx="158.02" cy="506.76" rx="5.67" ry="8.27"/>
		<ellipse class="st10" cx="187.58" cy="425.21" rx="5.67" ry="8.27"/>
		<ellipse class="st10" cx="168.82" cy="468.63" rx="5.67" ry="8.27"/>
		<ellipse class="st10" cx="227.26" cy="397.48" rx="5.67" ry="8.27"/>
		<ellipse class="st10" cx="250.65" cy="393.98" rx="5.67" ry="8.27"/>
		<ellipse class="st10" cx="271.43" cy="343.7" rx="5.67" ry="8.27"/>
		<ellipse class="st10" cx="226" cy="363.74" rx="5.67" ry="8.27"/>
		<ellipse class="st10" cx="213.04" cy="469.78" rx="5.67" ry="8.27"/>
		<ellipse class="st10" cx="203.08" cy="494" rx="5.67" ry="8.27"/>
		<ellipse class="st10" cx="226.9" cy="478.76" rx="5.67" ry="8.27"/>
		<line class="st10" x1="232.75" y1="473.72" x2="287.67" y2="406.86"/>
		<ellipse class="st10" cx="286.97" cy="405.64" rx="5.67" ry="8.27"/>
		<polyline class="st4" points="476.44,83.82 493.36,63.22 491.67,26.94 		"/>
		<polyline class="st4" points="493.36,63.22 526.3,58.4 551.57,27.64 		"/>
		<polyline class="st4" points="496.77,148.56 509.66,132.86 518.08,122.61 521.15,94.66 556.24,51.95 		"/>
		<polyline class="st4" points="518.08,122.61 539.88,127.44 575.07,84.89 		"/>
		<polyline class="st4" points="118.2,519.96 91.94,551.93 73.31,535.98 41.03,575.28 		"/>
		<line class="st4" x1="91.94" y1="551.93" x2="54.05" y2="598.07"/>
		<polyline class="st4" points="104.58,536.55 103.83,572.74 65.93,618.87 		"/>
		<polyline class="st4" points="144.09,565.97 118.07,597.66 116,631.53 90.74,662.29 		"/>
		<line class="st4" x1="118.07" y1="597.66" x2="80.17" y2="643.8"/>
		<ellipse class="st1" cx="570.91" cy="89.96" rx="5.42" ry="7.9"/>
		<ellipse class="st1" cx="100.42" cy="541.62" rx="5.42" ry="7.9"/>
		<ellipse class="st1" cx="118.07" cy="597.66" rx="5.42" ry="7.9"/>
		<ellipse class="st1" cx="65.93" cy="618.87" rx="5.42" ry="7.9"/>
		<ellipse class="st1" cx="493.36" cy="63.22" rx="5.42" ry="7.9"/>
		<ellipse class="st1" cx="522.24" cy="117.55" rx="5.42" ry="7.9"/>
		<ellipse class="st1" cx="555.72" cy="22.58" rx="5.42" ry="7.9"/>
		<ellipse class="st1" cx="491.01" cy="25.79" rx="5.42" ry="7.9"/>
		<ellipse class="st1" cx="557" cy="53.27" rx="5.42" ry="7.9"/>
		<ellipse class="st1" cx="54.05" cy="598.07" rx="5.42" ry="7.9"/>
		<ellipse class="st1" cx="42.16" cy="577.26" rx="5.42" ry="7.9"/>
		<path class="st0" d="M259.55,322.9"/>
		<text transform="matrix(0.9493 -1.1558 0.4961 0.8683 357.3324 300.1471)" class="st5 st6 st7">IMC</text>
		<path class="st8" d="M264.5,331.56"/>
		<polyline class="st9" points="124.54,547.53 158.02,506.76 142.66,479.89 187.58,425.21 		"/>
		<polyline class="st9" points="145.95,527.29 156.67,546.05 201.73,491.63 		"/>
		<line class="st9" x1="172.06" y1="464.69" x2="227.26" y2="397.48"/>
		<line class="st9" x1="213.04" y1="469.78" x2="268.39" y2="402.4"/>
		<polyline class="st9" points="308.37,298.73 281.54,331.4 271.43,343.7 279.85,358.44 250.65,393.98 		"/>
		<polyline class="st9" points="271.43,343.7 259.55,322.9 230.35,358.45 		"/>
		<polyline class="st9" points="316.18,332.05 327.93,352.61 311.37,372.51 		"/>
		<line class="st9" x1="320.98" y1="320.81" x2="297.89" y2="348.93"/>
		<ellipse class="st10" cx="300.17" cy="352.92" rx="5.67" ry="8.27"/>
		<ellipse class="st10" cx="268.39" cy="402.4" rx="5.67" ry="8.27"/>
		<ellipse class="st10" cx="307.61" cy="378.85" rx="5.67" ry="8.27"/>
		<ellipse class="st10" cx="156.67" cy="546.05" rx="5.67" ry="8.27"/>
		<ellipse class="st10" cx="158.02" cy="506.76" rx="5.67" ry="8.27"/>
		<ellipse class="st10" cx="187.58" cy="425.21" rx="5.67" ry="8.27"/>
		<ellipse class="st10" cx="168.82" cy="468.63" rx="5.67" ry="8.27"/>
		<ellipse class="st10" cx="227.26" cy="397.48" rx="5.67" ry="8.27"/>
		<ellipse class="st10" cx="250.65" cy="393.98" rx="5.67" ry="8.27"/>
		<ellipse class="st10" cx="271.43" cy="343.7" rx="5.67" ry="8.27"/>
		<ellipse class="st10" cx="226" cy="363.74" rx="5.67" ry="8.27"/>
		<ellipse class="st10" cx="213.04" cy="469.78" rx="5.67" ry="8.27"/>
		<ellipse class="st10" cx="203.08" cy="494" rx="5.67" ry="8.27"/>
		<ellipse class="st10" cx="226.9" cy="478.76" rx="5.67" ry="8.27"/>
		<line class="st10" x1="232.75" y1="473.72" x2="287.67" y2="406.86"/>
		<ellipse class="st10" cx="286.97" cy="405.64" rx="5.67" ry="8.27"/>
		<path class="st2" d="M213.04,416.93"/>
		<line class="st9" x1="213.04" y1="416.93" x2="244.99" y2="458.82"/>
	</g>
</g>
</svg>
