<?xml version="1.0" encoding="utf-8"?>
<!-- Generator: Adobe Illustrator 25.0.0, SVG Export Plug-In . SVG Version: 6.00 Build 0)  -->
<svg version="1.1" id="Layer_1" xmlns="http://www.w3.org/2000/svg" xmlns:xlink="http://www.w3.org/1999/xlink" x="0px" y="0px"
	 viewBox="0 0 595.28 841.89" style="enable-background:new 0 0 595.28 841.89;" xml:space="preserve">
<style type="text/css">
	.st0{fill:#F15A22;stroke:#F15B24;stroke-miterlimit:10;}
	.st1{fill:#FFFFFF;stroke:#F15B24;stroke-miterlimit:10;}
	.st2{fill:#F15B24;stroke:#F15B24;stroke-miterlimit:10;}
	.st3{fill:#FFFFFF;stroke:#F15B24;stroke-width:5;stroke-miterlimit:10;}
	.st4{fill:#F26522;stroke:#F15B24;stroke-width:5;stroke-miterlimit:10;}
	.st5{fill:#00A651;stroke:#00A651;stroke-width:5;stroke-miterlimit:10;}
	.st6{fill:#8B5E3C;stroke:#8B5E3C;stroke-width:5;stroke-miterlimit:10;}
	.st7{fill:#FBB040;stroke:#FBB040;stroke-width:5;stroke-miterlimit:10;}
	.st8{fill:#C49A6C;stroke:#9B8579;stroke-miterlimit:10;}
	.st9{fill:#2BB673;stroke:#2BB673;stroke-width:5;stroke-miterlimit:10;}
	.st10{fill:#FFFFFF;stroke:#2E3192;stroke-width:3;stroke-miterlimit:10;}
	.st11{fill:#2E3192;stroke:#2E3192;stroke-width:3;stroke-miterlimit:10;}
	.st12{fill:#FFFFFF;stroke:#2E3192;stroke-miterlimit:10;}
	.st13{fill:none;stroke:#2E3192;stroke-miterlimit:10;}
	.st14{fill:#21409A;stroke:#2E3192;stroke-miterlimit:10;}
	.st15{fill:#2E3192;}
	.st16{font-family:'Sylfaen';}
	.st17{font-size:22.8674px;}
	.st18{fill:#2E3192;stroke:#FFFFFF;stroke-width:2;stroke-miterlimit:10;}
	.st19{fill:#2E3192;stroke:#FFFFFF;stroke-miterlimit:10;}
	.st20{fill:#21409A;stroke:#FFFFFF;stroke-miterlimit:10;}
</style>
<path class="st10" d="M375.1,290.32c-3.35,3.33-43.81,36.54-65.72,54.81l-0.26-0.32c8.14-7.03-14.08-25.91-20.18-25.64
	c6.36-5.5,54.12-46.75,65.02-54.2C377.42,248.91,389.47,276.05,375.1,290.32z"/>
<path class="st11" d="M308.51,345.74c-8.48,7.31-54.04,46.82-65.72,54.81c-23.48,16.06-35.52-11.08-21.14-25.35
	c3.34-3.33,61.6-51.81,65.72-54.81c0.25-0.18,0.57-0.27,0.97-0.29C294.43,319.84,316.65,338.72,308.51,345.74z"/>
<polyline class="st12" points="371.82,260.75 379.2,254.59 378.46,243.75 "/>
<polyline class="st12" points="379.2,254.59 393.57,253.15 404.59,243.95 "/>
<polyline class="st12" points="380.68,280.1 386.31,275.41 389.98,272.34 391.32,263.99 406.64,251.22 "/>
<polyline class="st12" points="389.98,272.34 399.49,273.78 414.85,261.07 "/>
<polyline class="st12" points="215.51,391.11 204.05,400.66 195.92,395.9 181.83,407.64 "/>
<line class="st13" x1="204.05" y1="400.66" x2="187.51" y2="414.45"/>
<polyline class="st12" points="209.56,396.07 209.24,406.88 192.7,420.67 "/>
<polyline class="st12" points="226.8,404.86 215.45,414.33 214.55,424.46 203.52,433.65 "/>
<line class="st13" x1="215.45" y1="414.33" x2="198.91" y2="428.12"/>
<circle class="st14" cx="413.03" cy="262.58" r="2.36"/>
<circle class="st14" cx="205.63" cy="432.48" r="2.36"/>
<circle class="st14" cx="207.75" cy="397.58" r="2.36"/>
<circle class="st14" cx="215.45" cy="414.33" r="2.36"/>
<circle class="st14" cx="192.7" cy="420.67" r="2.36"/>
<circle class="st14" cx="197.59" cy="430.22" r="2.36"/>
<circle class="st14" cx="379.2" cy="254.59" r="2.36"/>
<circle class="st14" cx="391.8" cy="270.83" r="2.36"/>
<circle class="st14" cx="406.41" cy="242.44" r="2.36"/>
<circle class="st14" cx="378.17" cy="243.4" r="2.36"/>
<circle class="st14" cx="406.97" cy="251.62" r="2.36"/>
<circle class="st14" cx="187.51" cy="414.45" r="2.36"/>
<circle class="st14" cx="182.33" cy="408.24" r="2.36"/>
<text transform="matrix(1.2257 -1.0223 0.6405 0.768 319.8449 325.4056)" class="st15 st16 st17">IMC</text>
<polyline class="st19" points="218.27,399.35 232.88,387.16 226.18,379.13 245.78,362.79 "/>
<polyline class="st19" points="227.61,393.3 232.29,398.91 251.95,382.64 "/>
<line class="st19" x1="230.43" y1="389.21" x2="260.62" y2="364.03"/>
<line class="st19" x1="239.01" y1="374.59" x2="263.09" y2="354.5"/>
<line class="st19" x1="256.89" y1="376.11" x2="281.04" y2="355.97"/>
<polyline class="st19" points="298.48,324.98 286.77,334.75 282.36,338.43 286.04,342.83 273.3,353.45 "/>
<polyline class="st19" points="282.36,338.43 277.18,332.21 264.44,342.83 "/>
<polyline class="st19" points="301.89,334.94 307.01,341.09 299.79,347.04 "/>
<line class="st19" x1="303.99" y1="331.58" x2="293.91" y2="339.99"/>
<circle class="st20" cx="294.91" cy="341.18" r="2.47"/>
<circle class="st20" cx="281.04" cy="355.97" r="2.47"/>
<circle class="st20" cx="298.15" cy="348.93" r="2.47"/>
<circle class="st20" cx="232.29" cy="398.91" r="2.47"/>
<circle class="st20" cx="232.88" cy="387.16" r="2.47"/>
<circle class="st20" cx="245.78" cy="362.79" r="2.47"/>
<circle class="st20" cx="237.59" cy="375.76" r="2.47"/>
<circle class="st20" cx="263.09" cy="354.5" r="2.47"/>
<circle class="st20" cx="273.3" cy="353.45" r="2.47"/>
<circle class="st20" cx="282.36" cy="338.43" r="2.47"/>
<circle class="st20" cx="262.54" cy="344.42" r="2.47"/>
<circle class="st20" cx="256.89" cy="376.11" r="2.47"/>
<circle class="st20" cx="252.54" cy="383.35" r="2.47"/>
<circle class="st20" cx="262.94" cy="378.79" r="2.47"/>
<line class="st20" x1="265.49" y1="377.29" x2="289.45" y2="357.3"/>
<circle class="st20" cx="289.14" cy="356.94" r="2.47"/>
<path class="st10" d="M375.1,290.32c-3.35,3.33-43.81,36.54-65.72,54.81l-0.26-0.32c8.14-7.03-14.08-25.91-20.18-25.64
	c6.36-5.5,54.12-46.75,65.02-54.2C377.42,248.91,389.47,276.05,375.1,290.32z"/>
<polyline class="st13" points="371.82,260.75 379.2,254.59 378.46,243.75 "/>
<polyline class="st13" points="379.2,254.59 393.57,253.15 404.59,243.95 "/>
<polyline class="st13" points="380.68,280.1 386.31,275.41 389.98,272.34 391.32,263.99 406.64,251.22 "/>
<polyline class="st13" points="389.98,272.34 399.49,273.78 414.85,261.07 "/>
<polyline class="st13" points="215.51,391.11 204.05,400.66 195.92,395.9 181.83,407.64 "/>
<line class="st13" x1="204.05" y1="400.66" x2="187.51" y2="414.45"/>
<polyline class="st13" points="209.56,396.07 209.24,406.88 192.7,420.67 "/>
<polyline class="st13" points="226.8,404.86 215.45,414.33 214.55,424.46 203.52,433.65 "/>
<line class="st13" x1="215.45" y1="414.33" x2="198.91" y2="428.12"/>
<circle class="st14" cx="413.03" cy="262.58" r="2.36"/>
<circle class="st14" cx="205.63" cy="432.48" r="2.36"/>
<circle class="st14" cx="207.75" cy="397.58" r="2.36"/>
<circle class="st14" cx="215.45" cy="414.33" r="2.36"/>
<circle class="st14" cx="192.7" cy="420.67" r="2.36"/>
<circle class="st14" cx="197.59" cy="430.22" r="2.36"/>
<circle class="st14" cx="379.2" cy="254.59" r="2.36"/>
<circle class="st14" cx="391.8" cy="270.83" r="2.36"/>
<circle class="st14" cx="406.41" cy="242.44" r="2.36"/>
<circle class="st14" cx="378.17" cy="243.4" r="2.36"/>
<circle class="st14" cx="406.97" cy="251.62" r="2.36"/>
<circle class="st14" cx="187.51" cy="414.45" r="2.36"/>
<circle class="st14" cx="182.33" cy="408.24" r="2.36"/>
<text transform="matrix(1.2257 -1.0223 0.6405 0.768 319.8449 325.4056)" class="st15 st16 st17">IMC</text>
<polyline class="st19" points="218.27,399.35 232.88,387.16 226.18,379.13 245.78,362.79 "/>
<polyline class="st19" points="227.61,393.3 232.29,398.91 251.95,382.64 "/>
<line class="st19" x1="239.01" y1="374.59" x2="263.09" y2="354.5"/>
<line class="st19" x1="256.89" y1="376.11" x2="281.04" y2="355.97"/>
<polyline class="st19" points="298.48,324.98 286.77,334.75 282.36,338.43 286.04,342.83 273.3,353.45 "/>
<polyline class="st19" points="282.36,338.43 277.18,332.21 264.44,342.83 "/>
<polyline class="st19" points="301.89,334.94 307.01,341.09 299.79,347.04 "/>
<line class="st19" x1="303.99" y1="331.58" x2="293.91" y2="339.99"/>
<circle class="st20" cx="294.91" cy="341.18" r="2.47"/>
<circle class="st20" cx="281.04" cy="355.97" r="2.47"/>
<circle class="st20" cx="298.15" cy="348.93" r="2.47"/>
<circle class="st20" cx="232.29" cy="398.91" r="2.47"/>
<circle class="st20" cx="232.88" cy="387.16" r="2.47"/>
<circle class="st20" cx="245.78" cy="362.79" r="2.47"/>
<circle class="st20" cx="237.59" cy="375.76" r="2.47"/>
<circle class="st20" cx="263.09" cy="354.5" r="2.47"/>
<circle class="st20" cx="273.3" cy="353.45" r="2.47"/>
<circle class="st20" cx="282.36" cy="338.43" r="2.47"/>
<circle class="st20" cx="262.54" cy="344.42" r="2.47"/>
<circle class="st20" cx="256.89" cy="376.11" r="2.47"/>
<circle class="st20" cx="252.54" cy="383.35" r="2.47"/>
<circle class="st20" cx="262.94" cy="378.79" r="2.47"/>
<line class="st20" x1="265.49" y1="377.29" x2="289.45" y2="357.3"/>
<circle class="st20" cx="289.14" cy="356.94" r="2.47"/>
<line class="st19" x1="256.89" y1="360.31" x2="270.83" y2="372.83"/>
</svg>
